<?xml version="1.0" encoding="utf-8"?>
<!-- Generator: Adobe Illustrator 17.0.0, SVG Export Plug-In . SVG Version: 6.00 Build 0)  -->
<!DOCTYPE svg PUBLIC "-//W3C//DTD SVG 1.1//EN" "http://www.w3.org/Graphics/SVG/1.1/DTD/svg11.dtd">
<svg version="1.1" id="Capa_1" xmlns="http://www.w3.org/2000/svg" xmlns:xlink="http://www.w3.org/1999/xlink" x="0px" y="0px"
	 width="109.239px" height="18.453px" viewBox="0 -1.276 109.239 18.453" enable-background="new 0 -1.276 109.239 18.453"
	 xml:space="preserve">
<g>
	<path fill="#58509C" d="M61.927,14.408h-6.933l4.409-3.402c1.422-0.967,4.373-2.597,4.373-4.656c0-2.06-1.885-2.866-3.858-2.866
		c-2.791,0-5.013,2.042-5.013,4.138c0,1.11,0.818,1.647,1.618,1.647c0.8,0,1.618-0.645,1.618-1.629c0-0.824-0.658-1.415-1.476-1.415
		c-0.568,0-1.049,0.429-1.244,0.842c0.16-1.397,1.813-2.848,3.307-2.848c1.476,0,2.187,0.734,2.187,2.328
		c0,1.683-1.582,4.012-3.431,5.337l-4.107,3.166l-1.957,2.046h10.259l0.907-4.029h-0.356L61.927,14.408z"/>
	<path fill="#58509C" d="M68.672,7.609c-1.632,0-3.598,1.042-3.598,2.989c0,2.87,4.483,2.988,4.483,4.601
		c0,0.707-0.865,1.475-2.241,1.475c-1.809,0-2.38-0.61-2.714-1.023c0.079,0.019,0.177,0.176,0.59,0.176
		c0.668,0,1.317-0.491,1.317-1.278c0-0.884-0.747-1.298-1.337-1.298c-0.688,0-1.396,0.512-1.396,1.416
		c0,1.082,1.003,2.399,3.539,2.399c2.202,0,4.07-1.377,4.07-3.225c0-2.615-4.424-2.851-4.424-4.621c0-0.708,0.57-1.219,1.809-1.219
		c1.16,0,1.809,0.373,2.084,0.609c-0.078-0.019-0.137-0.118-0.452-0.118c-0.55,0-1.023,0.491-1.023,1.18
		c0,0.787,0.689,1.199,1.278,1.199c0.688,0,1.219-0.472,1.219-1.278C71.877,8.573,70.795,7.609,68.672,7.609"/>
	<path fill="#58509C" d="M84.067,13.508c-0.452,1.298-1.534,2.753-2.497,2.753c-0.255,0-0.354-0.157-0.354-0.373
		c0-0.099,0.02-0.236,0.039-0.354l1.986-7.747h-2.693l-0.629,2.438c-0.118-1.573-0.845-2.635-2.222-2.635
		c-2.045,0-5.132,2.163-5.132,6.095c0,2.556,1.769,3.343,3.126,3.343c1.494,0,2.615-1.239,3.323-2.713l-0.157,0.747
		c-0.02,0.118-0.039,0.334-0.039,0.433c0,0.983,0.432,1.534,1.652,1.534c1.534,0,2.717-0.948,3.508-2.359l0.558-1.018L84.067,13.508
		z M76.674,16.064c-0.708,0-1.082-0.727-1.082-1.789c0-2.634,1.573-5.623,2.93-5.623c0.61,0,1.101,0.766,1.101,2.005
		C79.623,12.702,78.267,16.064,76.674,16.064"/>
	<path fill="#58509C" d="M86.82,16.261c-0.256,0-0.354-0.157-0.354-0.374c0-0.098,0.02-0.236,0.039-0.354L89.24,3.584
		c0,0-0.87-0.031-2.021-0.422c-0.811-0.277-2.193-0.989-2.193-0.989v0.394l1.544,0.752l-2.338,10.239l0.23,0.069
		c-0.14,0.369-0.301,0.718-0.484,1.043l-0.067,0.294c-0.02,0.118-0.039,0.335-0.039,0.433c0,1.18,0.61,1.632,1.829,1.632
		c1.399,0,2.517-0.79,3.306-1.999c-0.059-0.167-0.105-0.345-0.137-0.536C88.327,15.446,87.54,16.261,86.82,16.261"/>
	<path fill="#58509C" d="M84.231,14.258l-0.254,1.112c0.183-0.325,0.344-0.675,0.484-1.043L84.231,14.258z"/>
	<path fill="#58509C" d="M98.223,9.615c0-1.416-1.494-2.025-3.401-2.025c-2.871,0-6.016,2.497-6.016,6.194
		c0,0.254,0.023,0.488,0.062,0.709c0.181-0.321,0.335-0.657,0.449-0.984l0.393,0.118c-0.193,0.509-0.43,0.981-0.705,1.403
		c0.505,1.431,1.91,1.999,3.418,1.999c2.183,0,3.952-1.494,4.817-3.009h-0.373c-0.845,1.377-2.32,2.419-3.657,2.419
		c-0.963,0-1.377-0.727-1.377-1.887c0-0.57,0.059-1.16,0.177-1.731C94.291,12.761,98.223,12.289,98.223,9.615 M94.96,7.943
		c0.551,0,0.688,0.649,0.688,1.377c0,2.34-2.084,3.009-3.559,3.126C92.62,10.087,93.918,7.943,94.96,7.943"/>
	<path fill="#58509C" d="M89.317,13.498c-0.114,0.327-0.268,0.664-0.449,0.984c0.033,0.191,0.078,0.37,0.137,0.537
		c0.275-0.422,0.511-0.894,0.705-1.403L89.317,13.498z"/>
	<path fill="#58509C" d="M6.524,7.861c1.107,0,1.999,0.48,2.725,1.355l2.081-1.884C10.207,5.929,8.49,5.153,6.359,5.153
		C2.692,5.153,0,7.647,0,11.165c0,3.518,2.692,6.012,6.359,6.012c2.131,0,3.848-0.776,4.971-2.18L9.25,13.114
		c-0.726,0.875-1.618,1.355-2.725,1.355c-1.9,0-3.221-1.322-3.221-3.304S4.625,7.861,6.524,7.861"/>
	<rect x="12.635" y="4.69" fill="#58509C" width="3.138" height="12.255"/>
	<path fill="#58509C" d="M22.298,7.845c-2.923,0-5.054,1.915-5.054,4.608c0,2.709,2.131,4.642,5.054,4.642
		c2.956,0,5.054-1.932,5.054-4.642C27.352,9.761,25.254,7.845,22.298,7.845 M22.298,14.6c-1.057,0-1.883-0.776-1.883-2.147
		c0-1.354,0.826-2.114,1.883-2.114c1.074,0,1.883,0.76,1.883,2.114C24.181,13.824,23.371,14.6,22.298,14.6"/>
	<path fill="#58509C" d="M31.217,10.703c0-0.33,0.38-0.628,1.437-0.628c0.793,0,1.685,0.165,2.577,0.661l0.941-2.13
		c-0.892-0.495-2.279-0.76-3.535-0.76c-2.808,0-4.36,1.288-4.36,2.972c0,3.585,5.285,2.214,5.285,3.419
		c0,0.38-0.347,0.612-1.404,0.612c-1.09,0-2.296-0.314-3.122-0.826l-0.941,2.147c0.875,0.545,2.444,0.925,3.964,0.925
		c2.907,0,4.427-1.288,4.427-2.94C36.486,10.604,31.217,11.941,31.217,10.703"/>
	<path fill="#58509C" d="M42.201,7.846c-2.825,0-4.922,1.915-4.922,4.607c0,2.676,2.065,4.642,5.253,4.642
		c1.701,0,2.957-0.495,3.815-1.453l-1.652-1.718c-0.611,0.529-1.189,0.776-2.065,0.776c-1.156,0-1.933-0.529-2.197-1.437h6.508
		c0.017-0.248,0.05-0.545,0.05-0.777C46.991,9.53,44.843,7.846,42.201,7.846 M40.384,11.611c0.181-0.942,0.859-1.537,1.833-1.537
		c0.975,0,1.669,0.595,1.833,1.537H40.384z"/>
	<path fill="#58509C" d="M51.946,13.642v-2.973h2.049V8.324h-2.049V5.995h-3.138v2.329h-1.305v2.345h1.305v3.006
		c0,1.56,0.624,2.57,1.739,3.063l2.089-2.102C52.216,14.54,51.946,14.198,51.946,13.642"/>
	<path fill="#EA5676" d="M106.841,7.677c-0.004-0.002-0.424-0.173-0.943-0.345c-0.828-0.276-1.237-0.334-1.434-0.334
		c-0.353,0-1.164,0.307-1.496,0.44c-0.015,0.011-0.036,0.022-0.057,0.03l-0.41,0.166c-0.031,0.013-0.06,0.026-0.087,0.038
		c-0.017,0.008-0.036,0.013-0.054,0.018l-0.581,0.234c0.737,0.437,1.598,0.688,2.517,0.688c1.032,0,1.991-0.317,2.784-0.858
		l-0.148-0.053C106.897,7.696,106.868,7.688,106.841,7.677"/>
	<path fill="#EA5676" d="M102.097,6.969c0.016-0.007,0.408-0.183,0.887-0.363c0.429-0.161,0.791-0.272,1.076-0.33
		c-0.005-0.402-0.004-0.894,0.231-1.305c0.185-0.323,0.481-0.511,0.768-0.692c0.153-0.098,0.297-0.188,0.422-0.298
		c0.586-0.513,0.794-1.383,0.496-2.069c-0.311-0.715-1.098-1.169-1.869-1.08c-0.392,0.047-1.112,0.283-1.529,1.354
		c-0.01,0.026-0.019,0.051-0.028,0.075c-0.061,0.161-0.135,0.361-0.273,0.495c-0.005,0.006-0.011,0.012-0.018,0.018
		c-0.003,0.004-0.006,0.006-0.008,0.009c-0.11,0.1-0.25,0.154-0.395,0.154c-0.322,0-0.584-0.262-0.584-0.584
		c0-0.322,0.262-0.583,0.584-0.583c0.01,0,0.021,0,0.031,0.001c0.056-0.135,0.117-0.277,0.195-0.412
		c0.239-0.415,0.565-0.756,0.942-0.985c0.746-0.451,1.675-0.465,2.488-0.037c0.824,0.435,1.346,1.221,1.397,2.105
		c0.05,0.884-0.361,1.757-1.074,2.279c-0.091,0.067-0.192,0.128-0.289,0.187c-0.235,0.143-0.479,0.291-0.581,0.506
		c-0.116,0.244-0.112,0.551-0.104,0.851c0.78,0.124,1.86,0.536,2.175,0.661l0.729,0.266c0.911-0.897,1.475-2.144,1.475-3.522
		c0-2.731-2.214-4.945-4.944-4.945c-2.73,0-4.944,2.214-4.944,4.945c0,1.487,0.657,2.82,1.695,3.727l1.039-0.418
		C102.088,6.974,102.092,6.972,102.097,6.969"/>
	<path fill="none" stroke="#FFFFFF" stroke-width="0.2852" stroke-miterlimit="10" d="M102.097,6.969
		c0.016-0.007,0.408-0.183,0.887-0.363c0.429-0.161,0.791-0.272,1.076-0.33c-0.005-0.402-0.004-0.894,0.231-1.305
		c0.185-0.323,0.481-0.511,0.768-0.692c0.153-0.098,0.297-0.188,0.422-0.298c0.586-0.513,0.794-1.383,0.496-2.069
		c-0.311-0.715-1.098-1.169-1.869-1.08c-0.392,0.047-1.112,0.283-1.529,1.354c-0.01,0.026-0.019,0.051-0.028,0.075
		c-0.061,0.161-0.135,0.361-0.273,0.495c-0.005,0.006-0.011,0.012-0.018,0.018c-0.003,0.004-0.006,0.006-0.008,0.009
		c-0.11,0.1-0.25,0.154-0.395,0.154c-0.322,0-0.584-0.262-0.584-0.584c0-0.322,0.262-0.583,0.584-0.583c0.01,0,0.021,0,0.031,0.001
		c0.056-0.135,0.117-0.277,0.195-0.412c0.239-0.415,0.565-0.756,0.942-0.985c0.746-0.451,1.675-0.465,2.488-0.037
		c0.824,0.435,1.346,1.221,1.397,2.105c0.05,0.884-0.361,1.757-1.074,2.279c-0.091,0.067-0.192,0.128-0.289,0.187
		c-0.235,0.143-0.479,0.291-0.581,0.506c-0.116,0.244-0.112,0.551-0.104,0.851c0.78,0.124,1.86,0.536,2.175,0.661l0.729,0.266
		c0.911-0.897,1.475-2.144,1.475-3.522c0-2.731-2.214-4.945-4.944-4.945c-2.73,0-4.944,2.214-4.944,4.945
		c0,1.487,0.657,2.82,1.695,3.727l1.039-0.418C102.088,6.974,102.092,6.972,102.097,6.969z"/>
	<path fill="#FFFFFF" d="M107.035,6.925c-0.315-0.125-1.396-0.537-2.176-0.661c-0.007-0.3-0.011-0.608,0.104-0.85
		c0.102-0.215,0.346-0.363,0.581-0.506c0.098-0.06,0.198-0.121,0.289-0.187c0.713-0.521,1.125-1.395,1.074-2.279
		c-0.05-0.883-0.572-1.671-1.396-2.105c-0.812-0.427-1.741-0.413-2.487,0.038c-0.378,0.228-0.703,0.569-0.942,0.984
		c-0.078,0.135-0.139,0.277-0.195,0.412c-0.01,0-0.021-0.001-0.031-0.001c-0.322,0-0.583,0.262-0.583,0.584s0.262,0.584,0.583,0.584
		c0.145,0,0.285-0.054,0.395-0.154c0.002-0.003,0.005-0.005,0.008-0.009c0.006-0.005,0.013-0.012,0.018-0.018
		c0.138-0.135,0.212-0.335,0.273-0.495c0.009-0.025,0.018-0.049,0.028-0.075c0.417-1.071,1.137-1.308,1.529-1.354
		c0.772-0.089,1.559,0.365,1.87,1.08c0.299,0.685,0.089,1.555-0.496,2.069c-0.125,0.109-0.269,0.201-0.422,0.297
		c-0.287,0.182-0.583,0.369-0.768,0.693c-0.235,0.411-0.236,0.903-0.232,1.306c-0.285,0.058-0.647,0.169-1.076,0.33
		c-0.479,0.179-0.871,0.356-0.887,0.363c-0.005,0.002-0.008,0.004-0.012,0.008l-1.038,0.418c0.227,0.198,0.471,0.376,0.732,0.53
		l0.581-0.234c0.018-0.005,0.036-0.011,0.054-0.018c0.027-0.013,0.056-0.026,0.087-0.039l0.41-0.165
		c0.021-0.009,0.042-0.019,0.057-0.03c0.332-0.133,1.143-0.439,1.496-0.439c0.198,0,0.607,0.057,1.435,0.333
		c0.518,0.173,0.938,0.343,0.942,0.345c0.027,0.011,0.056,0.018,0.09,0.024l0.147,0.054c0.246-0.167,0.475-0.356,0.685-0.564
		L107.035,6.925z"/>
</g>
</svg>
