<?xml version="1.0" encoding="utf-8"?>
<!-- Generator: Adobe Illustrator 17.0.0, SVG Export Plug-In . SVG Version: 6.00 Build 0)  -->
<!DOCTYPE svg PUBLIC "-//W3C//DTD SVG 1.1//EN" "http://www.w3.org/Graphics/SVG/1.1/DTD/svg11.dtd">
<svg version="1.1" id="Capa_1" xmlns="http://www.w3.org/2000/svg" xmlns:xlink="http://www.w3.org/1999/xlink" x="0px" y="0px"
	 width="64px" height="27px" viewBox="0 0 64 27" enable-background="new 0 0 64 27" xml:space="preserve">
<g>
	<path fill="#58509C" d="M35.956,15.569h-4.026l2.56-1.975c0.826-0.562,2.539-1.508,2.539-2.704c0-1.196-1.094-1.664-2.24-1.664
		c-1.62,0-2.911,1.185-2.911,2.402c0,0.645,0.475,0.956,0.939,0.956c0.464,0,0.939-0.374,0.939-0.946
		c0-0.478-0.382-0.821-0.857-0.821c-0.33,0-0.609,0.249-0.722,0.489c0.093-0.811,1.053-1.653,1.92-1.653
		c0.857,0,1.27,0.426,1.27,1.352c0,0.977-0.919,2.329-1.992,3.099l-2.385,1.838l-1.136,1.188h5.957l0.527-2.34h-0.207L35.956,15.569
		z"/>
	<path fill="#58509C" d="M39.873,11.622c-0.948,0-2.089,0.605-2.089,1.735c0,1.667,2.603,1.735,2.603,2.672
		c0,0.411-0.502,0.856-1.301,0.856c-1.05,0-1.382-0.354-1.576-0.594c0.046,0.011,0.103,0.102,0.343,0.102
		c0.388,0,0.765-0.285,0.765-0.742c0-0.513-0.434-0.753-0.776-0.753c-0.4,0-0.811,0.297-0.811,0.822
		c0,0.628,0.582,1.393,2.055,1.393c1.279,0,2.363-0.799,2.363-1.873c0-1.518-2.569-1.655-2.569-2.683
		c0-0.411,0.331-0.708,1.05-0.708c0.674,0,1.05,0.217,1.21,0.354c-0.046-0.011-0.08-0.068-0.263-0.068
		c-0.32,0-0.594,0.285-0.594,0.685c0,0.457,0.4,0.696,0.742,0.696c0.4,0,0.708-0.274,0.708-0.742
		C41.733,12.182,41.105,11.622,39.873,11.622"/>
	<path fill="#58509C" d="M48.811,15.047c-0.263,0.754-0.891,1.598-1.45,1.598c-0.148,0-0.205-0.091-0.205-0.217
		c0-0.057,0.011-0.137,0.023-0.206l1.153-4.498h-1.564l-0.365,1.416c-0.069-0.913-0.491-1.53-1.29-1.53
		c-1.188,0-2.98,1.256-2.98,3.539c0,1.484,1.027,1.941,1.815,1.941c0.867,0,1.518-0.719,1.929-1.575l-0.091,0.434
		c-0.011,0.069-0.023,0.194-0.023,0.251c0,0.571,0.251,0.891,0.959,0.891c0.891,0,1.578-0.551,2.037-1.37l0.324-0.591L48.811,15.047
		z M44.519,16.531c-0.411,0-0.628-0.422-0.628-1.039c0-1.53,0.914-3.265,1.701-3.265c0.354,0,0.639,0.445,0.639,1.164
		C46.231,14.579,45.444,16.531,44.519,16.531"/>
	<path fill="#58509C" d="M50.41,16.645c-0.148,0-0.205-0.091-0.205-0.217c0-0.057,0.011-0.137,0.023-0.206l1.588-6.938
		c0,0-0.505-0.018-1.173-0.245c-0.471-0.161-1.274-0.574-1.274-0.574v0.229l0.896,0.437l-1.358,5.945l0.133,0.04
		c-0.081,0.214-0.175,0.417-0.281,0.605l-0.039,0.171c-0.011,0.069-0.023,0.194-0.023,0.251c0,0.685,0.354,0.947,1.062,0.947
		c0.812,0,1.461-0.458,1.919-1.16c-0.034-0.097-0.061-0.201-0.08-0.311C51.285,16.172,50.828,16.645,50.41,16.645"/>
	<path fill="#58509C" d="M48.906,15.482l-0.148,0.645c0.106-0.189,0.2-0.392,0.281-0.605L48.906,15.482z"/>
	<path fill="#58509C" d="M57.031,12.787c0-0.822-0.868-1.176-1.975-1.176c-1.667,0-3.493,1.45-3.493,3.596
		c0,0.148,0.014,0.283,0.036,0.412c0.105-0.186,0.195-0.382,0.261-0.571l0.228,0.069c-0.112,0.296-0.25,0.569-0.409,0.814
		c0.293,0.831,1.109,1.161,1.985,1.161c1.267,0,2.295-0.868,2.797-1.747h-0.217c-0.491,0.799-1.347,1.405-2.124,1.405
		c-0.559,0-0.799-0.422-0.799-1.096c0-0.331,0.034-0.674,0.103-1.005C54.748,14.613,57.031,14.339,57.031,12.787 M55.136,11.816
		c0.32,0,0.399,0.377,0.399,0.799c0,1.359-1.21,1.747-2.066,1.815C53.777,13.06,54.531,11.816,55.136,11.816"/>
	<path fill="#58509C" d="M51.86,15.041c-0.066,0.19-0.155,0.385-0.261,0.572c0.019,0.111,0.046,0.215,0.08,0.312
		c0.16-0.245,0.297-0.519,0.409-0.815L51.86,15.041z"/>
	<path fill="#58509C" d="M3.788,11.768c0.643,0,1.16,0.279,1.582,0.787l1.208-1.094c-0.652-0.815-1.649-1.265-2.886-1.265
		C1.563,10.196,0,11.644,0,13.686c0,2.043,1.563,3.491,3.692,3.491c1.237,0,2.234-0.451,2.886-1.266l-1.208-1.094
		c-0.422,0.508-0.94,0.787-1.582,0.787c-1.103,0-1.87-0.768-1.87-1.918S2.685,11.768,3.788,11.768"/>
	<rect x="7.336" y="9.927" fill="#58509C" width="1.822" height="7.116"/>
	<path fill="#58509C" d="M12.947,11.759c-1.697,0-2.935,1.112-2.935,2.675c0,1.573,1.237,2.695,2.935,2.695
		c1.717,0,2.935-1.122,2.935-2.695C15.881,12.871,14.663,11.759,12.947,11.759 M12.947,15.681c-0.614,0-1.093-0.451-1.093-1.247
		c0-0.786,0.479-1.227,1.093-1.227c0.623,0,1.093,0.441,1.093,1.227C14.04,15.23,13.57,15.681,12.947,15.681"/>
	<path fill="#58509C" d="M18.125,13.418c0-0.192,0.22-0.365,0.834-0.365c0.46,0,0.978,0.096,1.496,0.384l0.547-1.237
		c-0.518-0.288-1.323-0.441-2.052-0.441c-1.63,0-2.532,0.748-2.532,1.726c0,2.081,3.069,1.285,3.069,1.985
		c0,0.221-0.201,0.355-0.815,0.355c-0.633,0-1.333-0.182-1.812-0.48l-0.547,1.247c0.508,0.316,1.419,0.537,2.302,0.537
		c1.688,0,2.57-0.748,2.57-1.707C21.184,13.36,18.125,14.137,18.125,13.418"/>
	<path fill="#58509C" d="M24.503,11.759c-1.64,0-2.858,1.112-2.858,2.675c0,1.554,1.199,2.695,3.05,2.695
		c0.988,0,1.717-0.288,2.215-0.844l-0.959-0.998c-0.355,0.307-0.69,0.451-1.199,0.451c-0.671,0-1.122-0.307-1.276-0.834h3.779
		c0.01-0.144,0.029-0.317,0.029-0.451C27.284,12.737,26.037,11.759,24.503,11.759 M23.448,13.945
		c0.105-0.547,0.499-0.892,1.064-0.892c0.566,0,0.969,0.345,1.065,0.892H23.448z"/>
	<path fill="#58509C" d="M30.161,15.125v-1.726h1.189v-1.362h-1.189v-1.352h-1.822v1.352h-0.758v1.362h0.758v1.745
		c0,0.906,0.362,1.492,1.01,1.778l1.213-1.22C30.318,15.646,30.161,15.447,30.161,15.125"/>
	<path fill="#EA5676" d="M62.035,11.661c-0.002-0.001-0.246-0.101-0.547-0.201c-0.481-0.16-0.718-0.194-0.833-0.194
		c-0.205,0-0.676,0.178-0.869,0.255c-0.009,0.006-0.021,0.013-0.033,0.017l-0.238,0.096c-0.018,0.008-0.035,0.015-0.051,0.022
		c-0.01,0.005-0.021,0.008-0.031,0.01l-0.337,0.136c0.428,0.254,0.928,0.399,1.461,0.399c0.599,0,1.156-0.184,1.616-0.498
		l-0.086-0.031C62.067,11.672,62.05,11.668,62.035,11.661"/>
	<path fill="#EA5676" d="M59.28,11.25c0.009-0.004,0.237-0.106,0.515-0.211c0.249-0.094,0.459-0.158,0.625-0.192
		c-0.003-0.234-0.002-0.519,0.134-0.758c0.108-0.188,0.28-0.296,0.446-0.402c0.089-0.057,0.173-0.109,0.245-0.173
		c0.34-0.298,0.461-0.803,0.288-1.201c-0.181-0.415-0.637-0.679-1.085-0.627c-0.228,0.027-0.646,0.164-0.888,0.786
		c-0.006,0.015-0.011,0.029-0.016,0.043c-0.035,0.094-0.079,0.21-0.159,0.288c-0.003,0.003-0.007,0.007-0.01,0.01
		c-0.002,0.002-0.003,0.004-0.005,0.005c-0.064,0.058-0.145,0.089-0.229,0.089c-0.187,0-0.339-0.152-0.339-0.339
		c0-0.187,0.152-0.339,0.339-0.339c0.006,0,0.012,0,0.018,0c0.033-0.079,0.068-0.161,0.113-0.239
		c0.139-0.241,0.328-0.439,0.547-0.572c0.433-0.262,0.973-0.27,1.444-0.022c0.479,0.252,0.782,0.709,0.811,1.222
		s-0.21,1.02-0.624,1.323c-0.053,0.039-0.111,0.074-0.168,0.108c-0.137,0.083-0.278,0.169-0.337,0.294
		c-0.067,0.141-0.065,0.32-0.061,0.494c0.453,0.072,1.08,0.311,1.263,0.384l0.423,0.154c0.529-0.521,0.857-1.245,0.857-2.045
		c0-1.586-1.285-2.871-2.871-2.871c-1.585,0-2.87,1.285-2.87,2.871c0,0.863,0.381,1.638,0.984,2.164l0.603-0.243
		C59.275,11.253,59.277,11.252,59.28,11.25"/>
	<path fill="none" stroke="#FFFFFF" stroke-width="0.1656" stroke-miterlimit="10" d="M59.28,11.25
		c0.009-0.004,0.237-0.106,0.515-0.211c0.249-0.094,0.459-0.158,0.625-0.192c-0.003-0.234-0.002-0.519,0.134-0.758
		c0.108-0.188,0.28-0.296,0.446-0.402c0.089-0.057,0.173-0.109,0.245-0.173c0.34-0.298,0.461-0.803,0.288-1.201
		c-0.181-0.415-0.637-0.679-1.085-0.627c-0.228,0.027-0.646,0.164-0.888,0.786c-0.006,0.015-0.011,0.029-0.016,0.043
		c-0.035,0.094-0.079,0.21-0.159,0.288c-0.003,0.003-0.007,0.007-0.01,0.01c-0.002,0.002-0.003,0.004-0.005,0.005
		c-0.064,0.058-0.145,0.089-0.229,0.089c-0.187,0-0.339-0.152-0.339-0.339c0-0.187,0.152-0.339,0.339-0.339c0.006,0,0.012,0,0.018,0
		c0.033-0.079,0.068-0.161,0.113-0.239c0.139-0.241,0.328-0.439,0.547-0.572c0.433-0.262,0.973-0.27,1.444-0.022
		c0.479,0.252,0.782,0.709,0.811,1.222s-0.21,1.02-0.624,1.323c-0.053,0.039-0.111,0.074-0.168,0.108
		c-0.137,0.083-0.278,0.169-0.337,0.294c-0.067,0.141-0.065,0.32-0.061,0.494c0.453,0.072,1.08,0.311,1.263,0.384l0.423,0.154
		c0.529-0.521,0.857-1.245,0.857-2.045c0-1.586-1.285-2.871-2.871-2.871c-1.585,0-2.87,1.285-2.87,2.871
		c0,0.863,0.381,1.638,0.984,2.164l0.603-0.243C59.275,11.253,59.277,11.252,59.28,11.25z"/>
	<path fill="#FFFFFF" d="M62.147,11.224c-0.183-0.072-0.811-0.312-1.263-0.384c-0.004-0.174-0.006-0.353,0.061-0.494
		c0.059-0.125,0.201-0.211,0.337-0.294c0.057-0.035,0.115-0.07,0.168-0.109c0.414-0.303,0.653-0.81,0.624-1.323
		c-0.029-0.513-0.332-0.97-0.811-1.222c-0.471-0.248-1.011-0.24-1.444,0.022c-0.219,0.132-0.408,0.33-0.547,0.572
		c-0.045,0.078-0.08,0.161-0.113,0.239c-0.006,0-0.012-0.001-0.018-0.001c-0.187,0-0.339,0.152-0.339,0.339
		c0,0.187,0.152,0.339,0.339,0.339c0.084,0,0.166-0.032,0.229-0.09c0.001-0.001,0.003-0.003,0.005-0.005
		c0.004-0.003,0.007-0.007,0.01-0.01c0.08-0.078,0.123-0.194,0.159-0.288c0.005-0.015,0.011-0.028,0.016-0.044
		c0.242-0.622,0.66-0.759,0.888-0.786c0.448-0.052,0.905,0.212,1.086,0.627c0.173,0.398,0.052,0.903-0.288,1.201
		C61.172,9.579,61.089,9.632,61,9.688c-0.166,0.105-0.338,0.214-0.446,0.402c-0.137,0.239-0.137,0.524-0.135,0.758
		c-0.165,0.033-0.375,0.098-0.625,0.192c-0.278,0.104-0.505,0.207-0.515,0.211c-0.003,0.001-0.005,0.002-0.007,0.004l-0.603,0.242
		c0.132,0.115,0.274,0.218,0.425,0.308l0.337-0.136c0.011-0.003,0.021-0.006,0.031-0.011c0.016-0.007,0.033-0.015,0.051-0.022
		l0.238-0.096c0.012-0.005,0.024-0.011,0.033-0.018c0.193-0.077,0.664-0.255,0.868-0.255c0.115,0,0.352,0.033,0.833,0.193
		c0.301,0.1,0.545,0.199,0.547,0.201c0.016,0.006,0.032,0.011,0.052,0.014l0.085,0.031c0.143-0.097,0.276-0.207,0.398-0.328
		L62.147,11.224z"/>
</g>
</svg>
